<?xml version="1.0" encoding="UTF-8" standalone="no"?>
<svg
   xmlns:dc="http://purl.org/dc/elements/1.1/"
   xmlns:cc="http://creativecommons.org/ns#"
   xmlns:rdf="http://www.w3.org/1999/02/22-rdf-syntax-ns#"
   xmlns:svg="http://www.w3.org/2000/svg"
   xmlns="http://www.w3.org/2000/svg"
   xmlns:xlink="http://www.w3.org/1999/xlink"
   id="svg34"
   version="1.1"
   preserveAspectRatio="xMidYMid meet"
   height="28px"
   viewBox="0 0 33 28"
   contentStyleType="text/css"
   zoomAndPan="magnify"
   width="33px"
   contentScriptType="text/ecmascript">
  <metadata
     id="metadata38">
    <rdf:RDF>
      <cc:Work
         rdf:about="">
        <dc:format>image/svg+xml</dc:format>
        <dc:type
           rdf:resource="http://purl.org/dc/dcmitype/StillImage" />
        <dc:title>
        Fill 1
    </dc:title>
      </cc:Work>
    </rdf:RDF>
  </metadata>
  <!-- Generator: Sketch 49.3 (51167) - http://www.bohemiancoding.com/sketch 
    -->
  <title
     id="title25">
        Fill 1
    </title>
  <desc
     id="desc27">
        Created with Sketch.
    </desc>
  <defs
     id="defs29">
    <linearGradient
       id="linearGradient835">
      <stop
         id="stop831"
         offset="0"
         style="stop-color:#f98835;stop-opacity:1;" />
      <stop
         id="stop833"
         offset="1"
         style="stop-color:#fc4027;stop-opacity:1" />
    </linearGradient>
    <linearGradient
       gradientUnits="userSpaceOnUse"
       y2="17.44776"
       x2="10.865671"
       y1="2.8208961"
       x1="31.917912"
       id="linearGradient837"
       xlink:href="#linearGradient835" />
  </defs>
  <g
     stroke="none"
     fill-rule="evenodd"
     id="Page-1"
     stroke-width="1"
     fill="none">
    <g
       transform="translate(-755.000000, -1464.000000)"
       id="Components"
       fill="#B2B2B2">
      <path
         id="Fill-1"
         d="M785.606127,1477.96452 L771.488123,1492 L757.40172,1477.94086 C755.853164,1476.39538 755,1474.34525 755,1472.16108 C755,1469.97691 755.845342,1467.92678 757.39374,1466.38919 C758.934317,1464.85159 760.98842,1464 763.169008,1464 C765.357417,1464 767.41942,1464.85159 768.967818,1466.39707 L770.753386,1468.1791 C771.172107,1468.59701 771.84364,1468.59701 772.262361,1468.1791 L774.03205,1466.41284 C775.580527,1464.86736 777.642451,1464.01577 779.823039,1464.01577 C782.003468,1464.01577 784.057571,1464.86736 785.606127,1466.40496 C787.154605,1467.95044 787.999947,1470.00056 787.999947,1472.18474 C788.007768,1474.36891 787.154605,1476.41904 785.606127,1477.96452"
         fill="#B2B2B2" />
    </g>
  </g>
  <path
     id="path3743"
     d="M 9.1944443,20.696222 C 5.0381018,16.535596 1.8031556,13.256433 1.6537219,13.052429 1.051727,12.230599 0.61234688,11.356251 0.3548804,10.467788 -0.8834978,6.1944034 1.4635057,1.7686138 5.6865672,0.41372274 6.5591099,0.13378357 7.1658871,0.04309824 8.1679104,0.04287577 9.4022628,0.04260152 10.364281,0.23464944 11.418079,0.69170678 12.557801,1.1860308 13.079155,1.577049 14.595353,3.0746766 c 0.860814,0.8502709 1.299575,1.2463259 1.462686,1.320317 0.278064,0.1261363 0.610275,0.1372878 0.869035,0.029171 0.11657,-0.048706 0.669774,-0.5526556 1.447949,-1.3190298 1.404246,-1.3829523 1.853092,-1.7339946 2.82647,-2.21057935 0.781843,-0.38280591 1.439253,-0.59822612 2.246268,-0.73605784 0.534403,-0.09127158 0.773266,-0.10310237 1.619403,-0.08020808 0.647838,0.01752884 1.128603,0.05737579 1.384329,0.11473656 3.311437,0.74277509 5.747931,3.20229321 6.372212,6.43242921 0.444736,2.3011366 -0.08694,4.6005147 -1.499779,6.4861657 -0.26558,0.354457 -3.342696,3.439277 -13.034956,13.067592 l -1.815507,1.803529 z"
     style="stroke-width:0.05223881;fill:none" />
  <path
     id="path3745"
     d="M 9.1944443,20.696222 C 5.0381018,16.535596 1.8031556,13.256433 1.6537219,13.052429 1.051727,12.230599 0.61234688,11.356251 0.3548804,10.467788 -0.8834978,6.1944034 1.4635057,1.7686138 5.6865672,0.41372274 6.5591099,0.13378357 7.1658871,0.04309824 8.1679104,0.04287577 9.4022628,0.04260152 10.364281,0.23464944 11.418079,0.69170678 12.557801,1.1860308 13.079155,1.577049 14.595353,3.0746766 c 0.860814,0.8502709 1.299575,1.2463259 1.462686,1.320317 0.278064,0.1261363 0.610275,0.1372878 0.869035,0.029171 0.11657,-0.048706 0.669774,-0.5526556 1.447949,-1.3190298 1.404246,-1.3829523 1.853092,-1.7339946 2.82647,-2.21057935 0.781843,-0.38280591 1.439253,-0.59822612 2.246268,-0.73605784 0.534403,-0.09127158 0.773266,-0.10310237 1.619403,-0.08020808 0.647838,0.01752884 1.128603,0.05737579 1.384329,0.11473656 3.311437,0.74277509 5.747931,3.20229321 6.372212,6.43242921 0.444736,2.3011366 -0.08694,4.6005147 -1.499779,6.4861657 -0.26558,0.354457 -3.342696,3.439277 -13.034956,13.067592 l -1.815507,1.803529 z"
     style="fill:none;stroke-width:0.05223881" />
  <path
     id="path3747"
     d="M 9.1944443,20.696222 C 5.0381018,16.535596 1.8031556,13.256433 1.6537219,13.052429 1.051727,12.230599 0.61234688,11.356251 0.3548804,10.467788 -0.8834978,6.1944034 1.4635057,1.7686138 5.6865672,0.41372274 6.5591099,0.13378357 7.1658871,0.04309824 8.1679104,0.04287577 9.4022628,0.04260152 10.364281,0.23464944 11.418079,0.69170678 12.557801,1.1860308 13.079155,1.577049 14.595353,3.0746766 c 0.860814,0.8502709 1.299575,1.2463259 1.462686,1.320317 0.278064,0.1261363 0.610275,0.1372878 0.869035,0.029171 0.11657,-0.048706 0.669774,-0.5526556 1.447949,-1.3190298 1.404246,-1.3829523 1.853092,-1.7339946 2.82647,-2.21057935 0.781843,-0.38280591 1.439253,-0.59822612 2.246268,-0.73605784 0.534403,-0.09127158 0.773266,-0.10310237 1.619403,-0.08020808 0.647838,0.01752884 1.128603,0.05737579 1.384329,0.11473656 3.311437,0.74277509 5.747931,3.20229321 6.372212,6.43242921 0.444736,2.3011366 -0.08694,4.6005147 -1.499779,6.4861657 -0.26558,0.354457 -3.342696,3.439277 -13.034956,13.067592 l -1.815507,1.803529 z"
     style="fill:none;stroke-width:0.05223881" />
  <path
     id="path3749"
     d="M 9.1294247,20.683955 C 4.6089756,16.157929 1.711141,13.217689 1.5481986,12.991791 -0.4813084,10.17815 -0.54553304,6.4355613 1.3863121,3.5581122 1.7611274,2.9998315 2.7242461,1.9987227 3.2776871,1.5921324 4.3449572,0.80805289 5.5446093,0.30168386 6.8613192,0.07949362 c 0.6583803,-0.11109941 1.9549767,-0.11110225 2.6125614,-5.71e-6 0.9949284,0.1680895 1.9804714,0.51324863 2.7931294,0.97821599 0.693073,0.3965456 1.286125,0.8901711 2.48299,2.0667104 0.646455,0.6354767 1.250605,1.1938691 1.342555,1.2408721 0.209008,0.1068401 0.587237,0.1099604 0.833944,0.00688 0.115941,-0.048444 0.671247,-0.5546861 1.447948,-1.3200173 1.370482,-1.3504194 1.84061,-1.722977 2.748687,-2.17822872 1.122734,-0.56286644 2.079221,-0.80491752 3.351343,-0.84809953 1.328884,-0.04510878 2.248203,0.10603507 3.41158,0.56089297 1.788062,0.69909748 3.390018,2.16422738 4.253449,3.89015198 1.475771,2.9499431 1.080225,6.4463592 -1.013517,8.9589552 -0.179563,0.215485 -1.428197,1.482993 -2.774741,2.816684 -1.346545,1.333692 -4.558192,4.52483 -7.136994,7.091418 -2.578802,2.566588 -4.706424,4.666525 -4.728049,4.666525 -0.02162,0 -3.332175,-3.296922 -7.3567803,-7.326493 z"
     style="fill:none;stroke-width:0.05223881" />
  <path
     id="path3751"
     d="M 9.1294247,20.683955 C 4.6089756,16.157929 1.711141,13.217689 1.5481986,12.991791 -0.4813084,10.17815 -0.54553304,6.4355613 1.3863121,3.5581122 1.7611274,2.9998315 2.7242461,1.9987227 3.2776871,1.5921324 4.3449572,0.80805289 5.5446093,0.30168386 6.8613192,0.07949362 c 0.6583803,-0.11109941 1.9549767,-0.11110225 2.6125614,-5.71e-6 0.9949284,0.1680895 1.9804714,0.51324863 2.7931294,0.97821599 0.693073,0.3965456 1.286125,0.8901711 2.48299,2.0667104 0.646455,0.6354767 1.250605,1.1938691 1.342555,1.2408721 0.209008,0.1068401 0.587237,0.1099604 0.833944,0.00688 0.115941,-0.048444 0.671247,-0.5546861 1.447948,-1.3200173 1.370482,-1.3504194 1.84061,-1.722977 2.748687,-2.17822872 1.122734,-0.56286644 2.079221,-0.80491752 3.351343,-0.84809953 1.328884,-0.04510878 2.248203,0.10603507 3.41158,0.56089297 1.788062,0.69909748 3.390018,2.16422738 4.253449,3.89015198 1.475771,2.9499431 1.080225,6.4463592 -1.013517,8.9589552 -0.179563,0.215485 -1.428197,1.482993 -2.774741,2.816684 -1.346545,1.333692 -4.558192,4.52483 -7.136994,7.091418 -2.578802,2.566588 -4.706424,4.666525 -4.728049,4.666525 -0.02162,0 -3.332175,-3.296922 -7.3567803,-7.326493 z"
     style="fill:none;stroke-width:0.05223881" />
  <path
     id="path3753"
     d="M 9.1294247,20.683955 C 4.6089756,16.157929 1.711141,13.217689 1.5481986,12.991791 -0.4813084,10.17815 -0.54553304,6.4355613 1.3863121,3.5581122 1.7611274,2.9998315 2.7242461,1.9987227 3.2776871,1.5921324 4.3449572,0.80805289 5.5446093,0.30168386 6.8613192,0.07949362 c 0.6583803,-0.11109941 1.9549767,-0.11110225 2.6125614,-5.71e-6 0.9949284,0.1680895 1.9804714,0.51324863 2.7931294,0.97821599 0.693073,0.3965456 1.286125,0.8901711 2.48299,2.0667104 0.646455,0.6354767 1.250605,1.1938691 1.342555,1.2408721 0.209008,0.1068401 0.587237,0.1099604 0.833944,0.00688 0.115941,-0.048444 0.671247,-0.5546861 1.447948,-1.3200173 1.370482,-1.3504194 1.84061,-1.722977 2.748687,-2.17822872 1.122734,-0.56286644 2.079221,-0.80491752 3.351343,-0.84809953 1.328884,-0.04510878 2.248203,0.10603507 3.41158,0.56089297 1.788062,0.69909748 3.390018,2.16422738 4.253449,3.89015198 1.475771,2.9499431 1.080225,6.4463592 -1.013517,8.9589552 -0.179563,0.215485 -1.428197,1.482993 -2.774741,2.816684 -1.346545,1.333692 -4.558192,4.52483 -7.136994,7.091418 -2.578802,2.566588 -4.706424,4.666525 -4.728049,4.666525 -0.02162,0 -3.332175,-3.296922 -7.3567803,-7.326493 z"
     style="fill:none;stroke-width:0.05223881" />
  <path
     id="path3755"
     d="M 9.1034761,20.605597 C 1.1357592,12.627511 1.4598501,12.9744 0.86754818,11.790299 0.54985501,11.155182 0.32474065,10.508607 0.16732188,9.7791045 0.06601852,9.3096495 0.04895985,9.0762564 0.04895985,8.1597015 c 0,-0.9174273 0.01699339,-1.1495014 0.11857905,-1.619403 C 0.72198083,3.9756337 2.3643668,1.8870719 4.6872691,0.79272399 5.8434633,0.24802661 6.8052523,0.03983492 8.1679104,0.039294 c 1.0500549,-4.1686e-4 1.7033027,0.09380052 2.5437466,0.3668823 0.632784,0.20560756 1.817329,0.8172568 2.340582,1.2085778 0.258582,0.1933838 1.022583,0.8961148 1.697781,1.5616244 1.279403,1.2610455 1.369821,1.3275296 1.802219,1.325168 0.35235,-0.00192 0.59508,-0.1889989 1.848688,-1.4248023 C 19.079298,2.4080079 19.798881,1.7410713 20,1.594663 c 2.511281,-1.82813101 5.817513,-2.07501007 8.589539,-0.64138796 2.194404,1.13489066 3.707779,3.13268196 4.246245,5.60542406 0.0986,0.452772 0.115436,0.6901457 0.115436,1.6271218 0,0.9369761 -0.01684,1.1743498 -0.115436,1.6271218 -0.294097,1.3505553 -0.875056,2.5571653 -1.727209,3.5872953 -0.306528,0.370547 -14.555639,14.557971 -14.62127,14.557971 -0.02242,0 -3.345149,-3.308675 -7.3838289,-7.352612 z"
     style="fill:url(#linearGradient837);stroke-width:0.05223881;fill-opacity:1" />
</svg>
